<svg width="49" height="49" viewBox="0 0 49 49" fill="none" xmlns="http://www.w3.org/2000/svg">
<rect x="1" y="3" width="47" height="46" rx="13" fill="white"/>
<path opacity="0.4" d="M34.2765 2.26384H14.7232C6.22984 2.26384 1.1665 7.32718 1.1665 15.8205V35.3738C1.1665 43.8671 6.22984 48.9305 14.7232 48.9305H34.2765C42.7698 48.9305 47.8332 43.8671 47.8332 35.3738V15.8205C47.8332 7.32718 42.7698 2.26384 34.2765 2.26384Z" fill="#292D32"/>
<path d="M39.2245 18.2941C39.2245 19.2508 38.4545 20.0441 37.4745 20.0441H25.2245C24.2679 20.0441 23.4746 19.2508 23.4746 18.2941C23.4746 17.3374 24.2679 16.5441 25.2245 16.5441H37.4745C38.4545 16.5441 39.2245 17.3374 39.2245 18.2941Z" fill="#292D32"/>
<path d="M19.7644 16.0306L14.5144 21.2806C14.1644 21.6306 13.7211 21.794 13.2778 21.794C12.8344 21.794 12.3678 21.6306 12.0411 21.2806L10.2911 19.5306C9.59111 18.854 9.59111 17.734 10.2911 17.0573C10.9678 16.3806 12.0644 16.3806 12.7644 17.0573L13.2778 17.5706L17.2911 13.5573C17.9678 12.8806 19.0644 12.8806 19.7644 13.5573C20.4411 14.234 20.4411 15.354 19.7644 16.0306Z" fill="#292D32"/>
<path d="M39.2245 34.6274C39.2245 35.584 38.4545 36.3774 37.4745 36.3774H25.2245C24.2679 36.3774 23.4746 35.584 23.4746 34.6274C23.4746 33.6707 24.2679 32.8774 25.2245 32.8774H37.4745C38.4545 32.8774 39.2245 33.6707 39.2245 34.6274Z" fill="#292D32"/>
<path d="M19.7644 32.364L14.5144 37.614C14.1644 37.964 13.7211 38.1274 13.2778 38.1274C12.8344 38.1274 12.3678 37.964 12.0411 37.614L10.2911 35.864C9.59111 35.1874 9.59111 34.0674 10.2911 33.3907C10.9678 32.714 12.0644 32.714 12.7644 33.3907L13.2778 33.904L17.2911 29.8907C17.9678 29.214 19.0644 29.214 19.7644 29.8907C20.4411 30.5674 20.4411 31.6874 19.7644 32.364Z" fill="#292D32"/>
</svg>
